<?xml version="1.0" encoding="UTF-8"?>
<svg version="1.1" xmlns="http://www.w3.org/2000/svg" width="131" height="114">
<path d="M0 0 C1.64379639 0.00241699 1.64379639 0.00241699 3.32080078 0.00488281 C12.42230525 0.14142546 20.24663189 1.49554459 28.875 4.375 C29.87402344 4.66375 30.87304688 4.9525 31.90234375 5.25 C40.00713199 7.79624483 48.41799452 12.4355108 53.4375 19.5 C58.53104484 29.68708969 58.48464537 42.83379065 54.9765625 53.63671875 C50.86797036 63.84992119 45.64339274 72.69380062 38.875 81.375 C38.34390625 82.13554688 37.8128125 82.89609375 37.265625 83.6796875 C36.80671875 84.23914063 36.3478125 84.79859375 35.875 85.375 C35.215 85.375 34.555 85.375 33.875 85.375 C33.65585938 85.93445313 33.43671875 86.49390625 33.2109375 87.0703125 C28.3534413 95.45020361 16.73543363 102.24995079 7.875 105.375 C2.05916168 106.43811023 -2.07238285 105.49257228 -7.125 102.375 C-7.7746875 101.99988281 -8.424375 101.62476562 -9.09375 101.23828125 C-15.74659857 97.30366745 -20.19785591 92.2875729 -25.125 86.375 C-25.929375 85.570625 -26.73375 84.76625 -27.5625 83.9375 C-29.58528463 81.91471537 -31.53336388 79.88209608 -33.4375 77.75 C-34.20513672 76.89535156 -34.20513672 76.89535156 -34.98828125 76.0234375 C-36.125 74.375 -36.125 74.375 -36.125 71.375 C-36.785 71.375 -37.445 71.375 -38.125 71.375 C-39.51626662 69.39952185 -40.7713825 67.44878835 -42 65.375 C-42.35932617 64.77558594 -42.71865234 64.17617187 -43.08886719 63.55859375 C-44.11213301 61.83735098 -45.1190224 60.10640368 -46.125 58.375 C-46.54523437 57.653125 -46.96546875 56.93125 -47.3984375 56.1875 C-52.66073386 46.42067796 -56.48388033 34.71798728 -53.3828125 23.75 C-49.74358598 15.03710731 -42.66512674 10.25724354 -34.203125 6.6171875 C-22.89175147 2.0867821 -12.22457632 -0.01883892 0 0 Z M-22.125 19.375 C-23.15625 19.9525 -24.1875 20.53 -25.25 21.125 C-31.06613465 25.67675755 -35.23133024 31.19898829 -37.125 38.375 C-38.20719529 49.1969529 -37.14988202 59.92763542 -30.4375 68.75 C-23.45250989 76.70194685 -13.40920372 84.56318511 -2.453125 85.3203125 C-1.68484375 85.33835937 -0.9165625 85.35640625 -0.125 85.375 C0.97328125 85.41367188 2.0715625 85.45234375 3.203125 85.4921875 C12.67547536 85.67357293 21.44027303 85.51407851 28.6875 78.75 C38.93119844 66.26467798 42.07617581 49.06905119 40.875 33.375 C40.0699393 27.59609896 38.79149143 23.62728392 34.125 19.9375 C28.5578946 16.3382542 23.69480805 13.87598966 16.875 14.375 C20.31035486 20.96886794 22.89896473 25.42360046 29.875 28.375 C30.535 28.375 31.195 28.375 31.875 28.375 C31.875 27.385 31.875 26.395 31.875 25.375 C32.535 25.375 33.195 25.375 33.875 25.375 C33.875 29.995 33.875 34.615 33.875 39.375 C33.215 39.375 32.555 39.375 31.875 39.375 C31.813125 38.67375 31.75125 37.9725 31.6875 37.25 C30.55825193 33.25419913 28.77777942 31.34689322 25.875 28.375 C24.885 28.375 23.895 28.375 22.875 28.375 C22.63265625 29.06207031 22.3903125 29.74914062 22.140625 30.45703125 C21.80546875 31.35808594 21.4703125 32.25914063 21.125 33.1875 C20.63773438 34.52748047 20.63773438 34.52748047 20.140625 35.89453125 C17.88598223 40.31335273 14.39517357 41.7427151 9.875 43.375 C9.3766749 49.35490117 10.5441083 53.36238774 13.875 58.375 C16.07832864 61.02364699 16.07832864 61.02364699 18.875 62.375 C22.95315604 62.46176928 24.77270811 61.44255125 28.1875 59.1875 C31.13895274 56.09877039 31.6799455 54.56867185 31.875 50.375 C32.865 50.375 33.855 50.375 34.875 50.375 C34.545 54.995 34.215 59.615 33.875 64.375 C33.215 64.375 32.555 64.375 31.875 64.375 C31.875 63.055 31.875 61.735 31.875 60.375 C31.318125 60.66375 30.76125 60.9525 30.1875 61.25 C29.424375 61.62125 28.66125 61.9925 27.875 62.375 C27.153125 62.74625 26.43125 63.1175 25.6875 63.5 C20.23875324 65.19516566 14.37148465 64.79344765 8.875 63.375 C8.58625 64.6125 8.2975 65.85 8 67.125 C6.13933237 74.43845751 6.13933237 74.43845751 3.1875 76.625 C-1.8978495 78.27430254 -6.37770458 77.67671899 -11.125 75.375 C-11.125 74.385 -11.125 73.395 -11.125 72.375 C-10.073125 72.890625 -9.02125 73.40625 -7.9375 73.9375 C-5.52591562 74.95162703 -4.15790164 75.375 -1.5 75.375 C1.80307007 73.98423365 3.62506522 72.13920559 5.875 69.375 C5.875 68.055 5.875 66.735 5.875 65.375 C2.575 65.375 -0.725 65.375 -4.125 65.375 C-4.125 64.385 -4.125 63.395 -4.125 62.375 C-3.135 62.375 -2.145 62.375 -1.125 62.375 C-1.62 60.395 -1.62 60.395 -2.125 58.375 C-6.085 58.375 -10.045 58.375 -14.125 58.375 C-14.125 60.685 -14.125 62.995 -14.125 65.375 C-18.415 65.375 -22.705 65.375 -27.125 65.375 C-27.125 64.385 -27.125 63.395 -27.125 62.375 C-25.64 61.88 -25.64 61.88 -24.125 61.375 C-22.09648898 57.54336808 -21.62729074 53.64447129 -21.125 49.375 C-22.5790625 48.446875 -22.5790625 48.446875 -24.0625 47.5 C-27.125 45.375 -27.125 45.375 -28.125 43.375 C-28.27279962 41.3996012 -28.34618966 39.41821076 -28.375 37.4375 C-28.40078125 36.37660156 -28.4265625 35.31570312 -28.453125 34.22265625 C-28.125 31.375 -28.125 31.375 -26.74609375 29.57421875 C-23.0848277 26.8657641 -20.28300388 26.19711083 -15.8125 26.75 C-13.9871875 27.059375 -13.9871875 27.059375 -12.125 27.375 C-12.125 26.385 -12.125 25.395 -12.125 24.375 C-11.135 24.375 -10.145 24.375 -9.125 24.375 C-8.89425781 25.344375 -8.66351563 26.31375 -8.42578125 27.3125 C-6.04865739 37.13728636 -3.24431432 46.76137554 -0.125 56.375 C0.865 56.045 1.855 55.715 2.875 55.375 C2.54757813 54.88515625 2.22015625 54.3953125 1.8828125 53.890625 C0.45727411 50.33230437 0.66345652 46.89296989 0.75 43.125 C0.75902344 42.37992188 0.76804688 41.63484375 0.77734375 40.8671875 C0.80081642 39.03631941 0.83668475 37.20561762 0.875 35.375 C0.215 35.375 -0.445 35.375 -1.125 35.375 C-3.21596556 30.77487576 -4.8660231 26.2760266 -3.57421875 21.21875 C-2.26518654 18.03555273 -1.2799377 15.90957116 1.92578125 14.42578125 C4.125 13.875 4.125 13.875 7.875 13.375 C7.875 13.045 7.875 12.715 7.875 12.375 C-3.08232201 11.9453011 -12.88666716 13.24119856 -22.125 19.375 Z M-0.125 19.375 C-1.30173198 21.72846396 -1.29123866 23.2556033 -1.3125 25.875 C-1.32667969 26.6690625 -1.34085938 27.463125 -1.35546875 28.28125 C-1.32166303 30.59533317 -1.32166303 30.59533317 0.875 32.375 C3.99998166 32.7123846 3.99998166 32.7123846 6.0625 30.375 C6.660625 29.715 7.25875 29.055 7.875 28.375 C9.4375 29.875 9.4375 29.875 10.875 32.375 C10.84323234 35.14937543 10.37864148 37.62786467 9.875 40.375 C13.35227891 38.82954271 16.17562173 37.07437827 18.875 34.375 C19.76555736 30.73317665 19.76555736 30.73317665 19.875 27.375 C17.235 27.375 14.595 27.375 11.875 27.375 C11.545 26.715 11.215 26.055 10.875 25.375 C13.515 24.715 16.155 24.055 18.875 23.375 C17.36723521 19.15325859 14.72335938 17.48782476 10.875 15.375 C6.157606 14.4315212 3.55088274 16.53454516 -0.125 19.375 Z M-24.5625 31.4375 C-26.77751822 34.32462138 -27.11803409 35.27225284 -27.375 39.0625 C-25.81116971 43.20665026 -23.97158648 44.32894336 -20.125 46.375 C-19.28121025 44.31675571 -18.45036378 42.25320214 -17.625 40.1875 C-16.92890625 38.46466797 -16.92890625 38.46466797 -16.21875 36.70703125 C-15.21694348 33.65509923 -14.88629196 31.54384928 -15.125 28.375 C-19.52742538 27.64126244 -21.56006013 28.28739915 -24.5625 31.4375 Z M-8.125 42.375 C-8.79805018 43.97649886 -9.46322227 45.58131029 -10.125 47.1875 C-10.49625 48.08082031 -10.8675 48.97414063 -11.25 49.89453125 C-12.29133237 52.4081433 -12.29133237 52.4081433 -12.125 55.375 C-9.485 55.375 -6.845 55.375 -4.125 55.375 C-4.781379 50.88974352 -5.82574209 46.70585971 -7.125 42.375 C-7.455 42.375 -7.785 42.375 -8.125 42.375 Z M1.875 60.375 C1.875 61.035 1.875 61.695 1.875 62.375 C2.535 62.045 3.195 61.715 3.875 61.375 C3.215 61.045 2.555 60.715 1.875 60.375 Z " fill="#52C6C0" transform="translate(63.125,7.625)"/>
<path d="M0 0 C0.66 0 1.32 0 2 0 C2 1.65 2 3.3 2 5 C2.65226562 4.98839844 3.30453125 4.97679687 3.9765625 4.96484375 C8.7761914 4.91529006 13.27784685 5.00586249 18 6 C18 6.33 18 6.66 18 7 C16.98421875 7.08636719 15.9684375 7.17273438 14.921875 7.26171875 C3.73603774 8.35002625 -7.09823665 10.65604524 -16 18 C-18.16026765 20.9070643 -18.16026765 20.9070643 -20 24 C-20.70125 24.825 -21.4025 25.65 -22.125 26.5 C-27.51222391 33.68296521 -26.66457396 42.67682842 -25.60546875 51.16015625 C-23.58530444 61.26097778 -18.16563005 67.9420028 -9.9375 73.9375 C3.27073499 82.50772881 18.72951422 82.4300773 34 80 C34.99 79.67 35.98 79.34 37 79 C36.773125 79.5775 36.54625 80.155 36.3125 80.75 C35.73494807 83.12172477 35.73494807 83.12172477 37.4375 85.25 C38.2109375 86.11625 38.2109375 86.11625 39 87 C33.6815295 94.23902929 26.56223433 99.14592189 18 102 C12.18944081 102.57552205 8.05792199 102.12084548 3 99 C2.3503125 98.62488281 1.700625 98.24976562 1.03125 97.86328125 C-5.62159857 93.92866745 -10.07285591 88.9125729 -15 83 C-15.804375 82.195625 -16.60875 81.39125 -17.4375 80.5625 C-19.46028463 78.53971537 -21.40836388 76.50709608 -23.3125 74.375 C-24.08013672 73.52035156 -24.08013672 73.52035156 -24.86328125 72.6484375 C-26 71 -26 71 -26 68 C-26.66 68 -27.32 68 -28 68 C-29.39126662 66.02452185 -30.6463825 64.07378835 -31.875 62 C-32.23432617 61.40058594 -32.59365234 60.80117187 -32.96386719 60.18359375 C-33.98713301 58.46235098 -34.9940224 56.73140368 -36 55 C-36.42023437 54.278125 -36.84046875 53.55625 -37.2734375 52.8125 C-42.53573386 43.04567796 -46.35888033 31.34298728 -43.2578125 20.375 C-40.16800348 12.97750104 -34.70776207 9.07863923 -28 5 C-27.08347656 4.41412109 -27.08347656 4.41412109 -26.1484375 3.81640625 C-22.90646134 2.58445531 -19.61545873 2.56727498 -16.1875 2.4375 C-7.44329284 2.71101104 -7.44329284 2.71101104 0 0 Z " fill="#2390C7" transform="translate(53,11)"/>
<path d="M0 0 C0.99 0.33 1.98 0.66 3 1 C3 1.66 3 2.32 3 3 C3.7425 3.28875 4.485 3.5775 5.25 3.875 C7.56739797 4.82302644 9.77917115 5.84845911 12 7 C12 6.01 12 5.02 12 4 C12.66 4 13.32 4 14 4 C14 8.62 14 13.24 14 18 C13.34 18 12.68 18 12 18 C11.566875 16.906875 11.13375 15.81375 10.6875 14.6875 C9.49320901 11.91203502 8.46894351 9.85170763 6 8 C5.01 7.67 4.02 7.34 3 7 C2.9175 7.86625 2.835 8.7325 2.75 9.625 C1.86416635 13.61125142 0.59038512 15.84953161 -2 19 C-7 22 -7 22 -10 22 C-9.05832504 28.26957277 -8.07998188 33.05456742 -4 38 C-1.19265527 40.2973659 -1.19265527 40.2973659 1.9375 39.875 C5.39185448 38.88804158 6.63386743 37.61964677 9 35 C9.66 35 10.32 35 11 35 C11.33 33.02 11.66 31.04 12 29 C12.99 29 13.98 29 15 29 C15.02705729 30.77074917 15.04642195 32.54161711 15.0625 34.3125 C15.07410156 35.29863281 15.08570312 36.28476563 15.09765625 37.30078125 C15 40 15 40 14 43 C13.34 43 12.68 43 12 43 C12 41.68 12 40.36 12 39 C11.071875 39.639375 10.14375 40.27875 9.1875 40.9375 C4.08815789 44.2370743 -0.09370053 44.44478262 -6 44 C-9.0625 43 -9.0625 43 -11 42 C-10.9175 42.845625 -10.835 43.69125 -10.75 44.5625 C-11.08380256 49.15228524 -12.38085713 51.21679363 -15 55 C-18.34042786 57.64930485 -21.86696196 57.3625472 -26 57 C-28.9375 55.6875 -28.9375 55.6875 -31 54 C-31 53.01 -31 52.02 -31 51 C-30.46375 51.144375 -29.9275 51.28875 -29.375 51.4375 C-28.199375 51.7159375 -28.199375 51.7159375 -27 52 C-26.030625 52.2475 -25.06125 52.495 -24.0625 52.75 C-20.98797531 53.22454319 -20.98797531 53.22454319 -18.25 51.9375 C-15.46413851 49.53856372 -14.86140864 47.52394445 -14 44 C-17.3 44 -20.6 44 -24 44 C-24 43.01 -24 42.02 -24 41 C-23.01 41 -22.02 41 -21 41 C-21.33 39.68 -21.66 38.36 -22 37 C-25.96 37 -29.92 37 -34 37 C-34 39.31 -34 41.62 -34 44 C-38.29 44 -42.58 44 -47 44 C-47 43.01 -47 42.02 -47 41 C-46.01 40.505 -46.01 40.505 -45 40 C-43.84979475 37.75256244 -43.84979475 37.75256244 -43 35 C-42.67 34.01 -42.34 33.02 -42 32 C-42 31.01 -42 30.02 -42 29 C-44.800674 26.19381992 -44.800674 26.19381992 -48 24 C-49.34283649 21.31432703 -49.24287519 19.12253147 -49.3125 16.125 C-49.34988281 15.07570313 -49.38726562 14.02640625 -49.42578125 12.9453125 C-48.9011769 9.31639799 -47.81973662 8.25475263 -45 6 C-40.77014151 3.59926951 -37.68958235 4.08047405 -33 5 C-32.67 4.34 -32.34 3.68 -32 3 C-31.01 3 -30.02 3 -29 3 C-27.67809987 7.01780383 -26.36917692 11.039722 -25.0625 15.0625 C-24.68931641 16.19623047 -24.31613281 17.32996094 -23.93164062 18.49804688 C-22.15063012 24.00152979 -20.52769293 29.22888206 -20 35 C-19.01 34.505 -19.01 34.505 -18 34 C-18.05220703 32.06447266 -18.05220703 32.06447266 -18.10546875 30.08984375 C-18.13362342 28.37240894 -18.16092177 26.65495993 -18.1875 24.9375 C-18.21263672 24.08994141 -18.23777344 23.24238281 -18.26367188 22.36914062 C-18.32832196 16.78768352 -17.73692445 12.90604872 -15 8 C-14.01 7.34 -13.02 6.68 -12 6 C-9.9375 8.125 -9.9375 8.125 -8 11 C-8.18157383 14.08675512 -8.62182182 16.24364365 -10 19 C-3.83227148 15.23949122 -3.83227148 15.23949122 -0.5 9.125 C-0.335 8.09375 -0.17 7.0625 0 6 C-2.64 6.33 -5.28 6.66 -8 7 C-8.495 5.515 -8.495 5.515 -9 4 C-6.03 3.34 -3.06 2.68 0 2 C0 1.34 0 0.68 0 0 Z M-44.4375 10.0625 C-46.65251822 12.94962138 -46.99303409 13.89725284 -47.25 17.6875 C-45.68616971 21.83165026 -43.84658648 22.95394336 -40 25 C-39.15621025 22.94175571 -38.32536378 20.87820214 -37.5 18.8125 C-36.80390625 17.08966797 -36.80390625 17.08966797 -36.09375 15.33203125 C-35.09194348 12.28009923 -34.76129196 10.16884928 -35 7 C-39.40242538 6.26626244 -41.43506013 6.91239915 -44.4375 10.0625 Z M-28 21 C-28.67305018 22.60149886 -29.33822227 24.20631029 -30 25.8125 C-30.37125 26.70582031 -30.7425 27.59914063 -31.125 28.51953125 C-32.16633237 31.0331433 -32.16633237 31.0331433 -32 34 C-29.36 34 -26.72 34 -24 34 C-24.656379 29.51474352 -25.70074209 25.33085971 -27 21 C-27.33 21 -27.66 21 -28 21 Z M-18 39 C-18 39.66 -18 40.32 -18 41 C-17.34 40.67 -16.68 40.34 -16 40 C-16.66 39.67 -17.32 39.34 -18 39 Z " fill="#A0A2A2" transform="translate(83,29)"/>
<path d="M0 0 C0.66 0 1.32 0 2 0 C2 1.65 2 3.3 2 5 C-0.475 4.505 -0.475 4.505 -3 4 C-3.33 4.66 -3.66 5.32 -4 6 C-4.99 6 -5.98 6 -7 6 C-7.33 6.99 -7.66 7.98 -8 9 C-10.31939207 9.7136591 -12.65523449 10.3747292 -15 11 C-16.6829392 11.97236487 -18.35443434 12.96564444 -20 14 C-20.66 14 -21.32 14 -22 14 C-22.598125 14.61875 -23.19625 15.2375 -23.8125 15.875 C-26 18 -26 18 -28.625 18.9375 C-31.19740237 19.79117929 -31.19740237 19.79117929 -32.1875 22.3125 C-32.455625 23.199375 -32.72375 24.08625 -33 25 C-33.66666667 26.66666667 -34.33333333 28.33333333 -35 30 C-33.68 30.66 -32.36 31.32 -31 32 C-31 31.01 -31 30.02 -31 29 C-30.34 29 -29.68 29 -29 29 C-29.06960937 30.95679688 -29.06960937 30.95679688 -29.140625 32.953125 C-29.39338031 43.14433623 -29.03973069 51.4870858 -25 61 C-24.40166725 62.74492857 -23.81702973 64.49464959 -23.25 66.25 C-22.8375 67.4875 -22.425 68.725 -22 70 C-22.66 70 -23.32 70 -24 70 C-24.5775 68.9275 -25.155 67.855 -25.75 66.75 C-27.12051369 64.30265413 -28.11741904 62.89562752 -30.25 61 C-32 59 -32 59 -32.3125 55.375 C-32 52 -32 52 -31 50 C-32.65 49.67 -34.3 49.34 -36 49 C-36 47.35 -36 45.7 -36 44 C-37.32 43.67 -38.64 43.34 -40 43 C-40 42.34 -40 41.68 -40 41 C-40.66 41 -41.32 41 -42 41 C-44.74577658 33.27750336 -45.45246856 25.50173756 -42.1875 17.8125 C-38.89738722 11.88462439 -33.69193634 8.46096874 -28 5 C-27.08347656 4.41412109 -27.08347656 4.41412109 -26.1484375 3.81640625 C-22.90646134 2.58445531 -19.61545873 2.56727498 -16.1875 2.4375 C-7.44329284 2.71101104 -7.44329284 2.71101104 0 0 Z " fill="#31A1BC" transform="translate(53,11)"/>
<path d="M0 0 C0.99 0 1.98 0 3 0 C4.32190013 4.01780383 5.63082308 8.039722 6.9375 12.0625 C7.49727539 13.7630957 7.49727539 13.7630957 8.06835938 15.49804688 C9.84936988 21.00152979 11.47230707 26.22888206 12 32 C11.01 32 10.02 32 9 32 C6.525 25.565 6.525 25.565 4 19 C3.54625 20.464375 3.0925 21.92875 2.625 23.4375 C1.8515625 25.93359375 1.8515625 25.93359375 1 28 C0.34 28.33 -0.32 28.66 -1 29 C-1.87393517 31.31141821 -1.87393517 31.31141821 -2.5625 34 C-3.90802348 38.90802348 -3.90802348 38.90802348 -5 40 C-7.33297433 40.04092937 -9.66705225 40.04241723 -12 40 C-11.78601562 39.04738281 -11.57203125 38.09476563 -11.3515625 37.11328125 C-9.66774657 30.39932067 -9.66774657 30.39932067 -11.16796875 24.02734375 C-12.98691061 22.54525963 -12.98691061 22.54525963 -16 21 C-17.34283649 18.31432703 -17.24287519 16.12253147 -17.3125 13.125 C-17.34988281 12.07570313 -17.38726562 11.02640625 -17.42578125 9.9453125 C-16.9011769 6.31639799 -15.81973662 5.25475263 -13 3 C-8.77014151 0.59926951 -5.68958235 1.08047405 -1 2 C-0.67 1.34 -0.34 0.68 0 0 Z M-12.4375 7.0625 C-14.65251822 9.94962138 -14.99303409 10.89725284 -15.25 14.6875 C-13.68616971 18.83165026 -11.84658648 19.95394336 -8 22 C-7.15621025 19.94175571 -6.32536378 17.87820214 -5.5 15.8125 C-4.80390625 14.08966797 -4.80390625 14.08966797 -4.09375 12.33203125 C-3.09194348 9.28009923 -2.76129196 7.16884928 -3 4 C-7.40242538 3.26626244 -9.43506013 3.91239915 -12.4375 7.0625 Z " fill="#A5A7A7" transform="translate(51,32)"/>
<path d="M0 0 C0.33 0.99 0.66 1.98 1 3 C1.63808594 3.14566406 2.27617188 3.29132812 2.93359375 3.44140625 C5 4 5 4 6.16015625 5.77734375 C6.45792969 6.49019531 6.75570312 7.20304687 7.0625 7.9375 C8.45588364 11.23258319 8.85581541 11.90387694 12 14 C12.99 14 13.98 14 15 14 C15.125 21.75 15.125 21.75 14 24 C11.4375 24.625 11.4375 24.625 9 25 C9 25.66 9 26.32 9 27 C9.99 27 10.98 27 12 27 C13.72875537 35.11185214 11.86555288 39.7982534 8 47 C7.67 47.66 7.34 48.32 7 49 C5.68 49 4.36 49 3 49 C3 48.34 3 47.68 3 47 C2.01 47.495 2.01 47.495 1 48 C1.33 50.31 1.66 52.62 2 55 C1.34 55 0.68 55 0 55 C-0.33 55.99 -0.66 56.98 -1 58 C-1.99 57.67 -2.98 57.34 -4 57 C-3.58983921 53.06245643 -3.03559847 50.08977005 -1.5625 46.375 C2.68479934 35.48609041 4.48422461 19.81621889 0.87890625 8.47265625 C-0.29684876 5.88466293 -1.52989238 3.43092795 -3 1 C-2.01 0.67 -1.02 0.34 0 0 Z " fill="#49BFBD" transform="translate(103,26)"/>
<path d="M0 0 C0.66 0.33 1.32 0.66 2 1 C2 1.66 2 2.32 2 3 C2.66 3.99 3.32 4.98 4 6 C3.11362622 7.11177467 2.2153535 8.21406614 1.3125 9.3125 C0.81363281 9.92738281 0.31476563 10.54226562 -0.19921875 11.17578125 C-4.1930078 15.2215502 -7.69723218 16.3789688 -13.3125 16.6875 C-14.38113281 16.75324219 -15.44976562 16.81898437 -16.55078125 16.88671875 C-17.35902344 16.92410156 -18.16726562 16.96148437 -19 17 C-19 17.66 -19 18.32 -19 19 C-22.46941546 18.54177532 -25.67395049 18.10868317 -29 17 C-28.67 15.68 -28.34 14.36 -28 13 C-28.66 13 -29.32 13 -30 13 C-30 13.66 -30 14.32 -30 15 C-30.66 15 -31.32 15 -32 15 C-32 14.34 -32 13.68 -32 13 C-32.7425 12.9175 -33.485 12.835 -34.25 12.75 C-37.61426412 11.83247342 -38.87059621 10.73780488 -41 8 C-41.75 5.25 -41.75 5.25 -42 3 C-34.57142857 2.85714286 -34.57142857 2.85714286 -31 4 C-31 4.66 -31 5.32 -31 6 C-15.94281059 5.62700244 -15.94281059 5.62700244 -1.828125 0.83984375 C-1.22484375 0.56269531 -0.6215625 0.28554687 0 0 Z " fill="#3099C5" transform="translate(88,92)"/>
<path d="M0 0 C0.495 0.99 0.495 0.99 1 2 C1.94101562 1.98839844 2.88203125 1.97679687 3.8515625 1.96484375 C5.09679688 1.95582031 6.34203125 1.94679688 7.625 1.9375 C9.46964844 1.92009766 9.46964844 1.92009766 11.3515625 1.90234375 C14.67723791 1.99136076 17.74047588 2.36313913 21 3 C21 3.33 21 3.66 21 4 C19.98421875 4.08636719 18.9684375 4.17273438 17.921875 4.26171875 C6.73603774 5.35002625 -4.09823665 7.65604524 -13 15 C-15.16026765 17.9070643 -15.16026765 17.9070643 -17 21 C-18.051875 22.2375 -18.051875 22.2375 -19.125 23.5 C-23.94028958 29.92038611 -23.57954695 37.32749041 -23 45 C-21.99097891 50.61796901 -20.72890004 55.95746732 -18 61 C-22.22830511 58.8893535 -23.81080607 57.29286255 -25.3125 52.8125 C-27.78149592 44.6588401 -28.58856755 34.24974372 -26 26 C-26.66 26 -27.32 26 -28 26 C-28 26.99 -28 27.98 -28 29 C-30.475 28.01 -30.475 28.01 -33 27 C-32.33333333 25.33333333 -31.66666667 23.66666667 -31 22 C-30.71125 21.113125 -30.4225 20.22625 -30.125 19.3125 C-28.37650652 15.7183745 -25.94530654 15.32975809 -22.3125 14.0625 C-21.549375 13.711875 -20.78625 13.36125 -20 13 C-19.67 12.01 -19.34 11.02 -19 10 C-16.625 8.9375 -16.625 8.9375 -14 8 C-13.01 7.34 -12.02 6.68 -11 6 C-9.453125 5.7525 -9.453125 5.7525 -7.875 5.5 C-6.92625 5.335 -5.9775 5.17 -5 5 C-4.67 4.34 -4.34 3.68 -4 3 C-3.01 3 -2.02 3 -1 3 C-0.67 2.01 -0.34 1.02 0 0 Z " fill="#40B3BB" transform="translate(50,14)"/>
<path d="M0 0 C2.97 0 5.94 0 9 0 C9 0.66 9 1.32 9 2 C10.32 2 11.64 2 13 2 C21.90730071 16.33802742 21.44731283 29.11126363 17.93359375 45.23828125 C16.6006554 50.60907468 14.93377029 55.81710299 13 61 C13.99 61 14.98 61 16 61 C16.33 60.34 16.66 59.68 17 59 C17.66 59 18.32 59 19 59 C18.67 58.236875 18.34 57.47375 18 56.6875 C17 54 17 54 17 51 C17.99 51 18.98 51 20 51 C20 51.66 20 52.32 20 53 C21.32 53 22.64 53 24 53 C24.33 52.01 24.66 51.02 25 50 C25.33 50.66 25.66 51.32 26 52 C24.67603002 54.35804134 23.3104686 56.56899864 21.8125 58.8125 C21.41224609 59.42931641 21.01199219 60.04613281 20.59960938 60.68164062 C18.24666984 64.27015943 15.85695927 67.78821495 13 71 C12.34 71 11.68 71 11 71 C10.731875 71.598125 10.46375 72.19625 10.1875 72.8125 C9.01506533 74.97224808 7.80630718 76.35790256 6 78 C5.34 77.67 4.68 77.34 4 77 C4 76.01 4 75.02 4 74 C3.34 73.34 2.68 72.68 2 72 C2.33 71.01 2.66 70.02 3 69 C0.03 69.495 0.03 69.495 -3 70 C0.75 67 0.75 67 3 67 C3.66 65.68 4.32 64.36 5 63 C5.66 63 6.32 63 7 63 C7.268125 62.31035156 7.53625 61.62070313 7.8125 60.91015625 C8.64178036 58.8778738 9.52115668 56.8656345 10.4375 54.87109375 C16.59879275 41.33165292 20.13271142 25.65232603 15.10546875 11.08984375 C12.08715184 5.38383828 5.72720754 3.22075395 0 1 C0 0.67 0 0.34 0 0 Z " fill="#36ACBD" transform="translate(86,22)"/>
<path d="M0 0 C3.59478518 2.13975309 6.18037476 4.06385434 8.75 7.375 C14.42805617 14.34148052 23.62515742 18.90384464 32.50390625 19.84375 C42.04811958 20.44119684 52.81113054 21.06295649 62 18 C62 18.66 62 19.32 62 20 C50.97949307 26.0111856 41.29690827 26.27158816 29 26 C29 25.34 29 24.68 29 24 C28.01 23.9175 27.02 23.835 26 23.75 C20.18758916 22.9247084 14.30779237 19.98869664 10 16 C8.98648336 14.34151823 7.98879205 12.67334039 7 11 C5.47226867 9.21094621 3.90531464 7.47015233 2.3046875 5.74609375 C0.87462206 3.83220377 0.41856755 2.33274839 0 0 Z " fill="#2680B6" transform="translate(28,72)"/>
<path d="M0 0 C0.33 0.99 0.66 1.98 1 3 C3.64 3 6.28 3 9 3 C9.33 2.34 9.66 1.68 10 1 C10.66 1.66 11.32 2.32 12 3 C12.99 3 13.98 3 15 3 C15.33 2.34 15.66 1.68 16 1 C16.45890625 1.54269531 16.9178125 2.08539063 17.390625 2.64453125 C18.31101562 3.71767578 18.31101562 3.71767578 19.25 4.8125 C19.85328125 5.52019531 20.4565625 6.22789063 21.078125 6.95703125 C22.92370398 8.91889671 24.79945332 10.45669625 27 12 C24.525 11.505 24.525 11.505 22 11 C22.0825 11.845625 22.165 12.69125 22.25 13.5625 C21.91619744 18.15228524 20.61914287 20.21679363 18 24 C14.65957214 26.64930485 11.13303804 26.3625472 7 26 C4.0625 24.6875 4.0625 24.6875 2 23 C2 22.01 2 21.02 2 20 C2.53625 20.144375 3.0725 20.28875 3.625 20.4375 C4.40875 20.623125 5.1925 20.80875 6 21 C6.969375 21.2475 7.93875 21.495 8.9375 21.75 C12.01202469 22.22454319 12.01202469 22.22454319 14.75 20.9375 C17.53586149 18.53856372 18.13859136 16.52394445 19 13 C15.7 13 12.4 13 9 13 C9 12.01 9 11.02 9 10 C9.99 10 10.98 10 12 10 C11.67 8.68 11.34 7.36 11 6 C7.04 6 3.08 6 -1 6 C-1 8.31 -1 10.62 -1 13 C-5.29 13 -9.58 13 -14 13 C-14 12.01 -14 11.02 -14 10 C-13.34 9.67 -12.68 9.34 -12 9 C-11.27840576 7.35636866 -10.60648579 5.68949614 -10 4 C-9.06934867 6.60582371 -8.85082593 7.64198224 -9.9375 10.25 C-10.288125 10.8275 -10.63875 11.405 -11 12 C-7.535 11.505 -7.535 11.505 -4 11 C-3.79503906 10.28972656 -3.59007812 9.57945313 -3.37890625 8.84765625 C-3.10949219 7.92855469 -2.84007812 7.00945312 -2.5625 6.0625 C-2.29566406 5.14597656 -2.02882813 4.22945313 -1.75390625 3.28515625 C-1 1 -1 1 0 0 Z M15 8 C15 8.66 15 9.32 15 10 C15.66 9.67 16.32 9.34 17 9 C16.34 8.67 15.68 8.34 15 8 Z " fill="#AFB1B1" transform="translate(50,60)"/>
<path d="M0 0 C1.05896484 -0.00773437 2.11792969 -0.01546875 3.20898438 -0.0234375 C8.88391872 -0.00927672 13.70865812 0.33084188 19.0625 2.25 C19.0625 2.58 19.0625 2.91 19.0625 3.25 C17.4125 3.58 15.7625 3.91 14.0625 4.25 C15.0834375 5.36375 15.0834375 5.36375 16.125 6.5 C18.0625 9.25 18.0625 9.25 17.8125 11.5625 C17.565 12.119375 17.3175 12.67625 17.0625 13.25 C15.0825 13.25 13.1025 13.25 11.0625 13.25 C12.3825 12.92 13.7025 12.59 15.0625 12.25 C11.83583023 7.71557423 11.83583023 7.71557423 7.0625 5.25 C3.31001088 5.38401747 0.83505924 5.77457893 -2.375 7.75 C-4.70240154 11.47384246 -4.26660888 14.97158453 -3.9375 19.25 C-2.6175 19.91 -1.2975 20.57 0.0625 21.25 C-0.17521118 22.11286621 -0.17521118 22.11286621 -0.41772461 22.99316406 C-0.91663326 25.15939777 -1.13638324 27.14322683 -1.25390625 29.359375 C-1.29580078 30.11347656 -1.33769531 30.86757813 -1.38085938 31.64453125 C-1.42017578 32.42183594 -1.45949219 33.19914062 -1.5 34 C-1.54318359 34.79277344 -1.58636719 35.58554687 -1.63085938 36.40234375 C-1.73652991 38.35137815 -1.83747966 40.30066748 -1.9375 42.25 C-3.9375 40.25 -3.9375 40.25 -4.16796875 37.31640625 C-4.14669922 35.58197266 -4.14669922 35.58197266 -4.125 33.8125 C-4.11855469 32.65878906 -4.11210938 31.50507812 -4.10546875 30.31640625 C-3.9375 27.25 -3.9375 27.25 -2.9375 24.25 C-3.5975 24.25 -4.2575 24.25 -4.9375 24.25 C-7.33241246 20.29274122 -8.9375 17.32769475 -8.9375 12.625 C-7.83823412 8.91497766 -6.2249267 6.34909423 -3.9375 3.25 C-3.9375 2.92 -3.9375 2.59 -3.9375 2.25 C-12.45043923 3.1315563 -18.70372145 4.72324876 -25.9375 9.25 C-27.58741582 9.95710678 -29.24579042 10.64971596 -30.9375 11.25 C-27.10718294 6.94089331 -23.25811945 4.45329449 -17.9375 2.25 C-17.10992187 1.88777344 -16.28234375 1.52554687 -15.4296875 1.15234375 C-10.28797886 -0.17621855 -5.28769892 -0.03847931 0 0 Z " fill="#A0A2A2" transform="translate(66.9375,18.75)"/>
<path d="M0 0 C4.75 1.875 4.75 1.875 7 3 C7 2.01 7 1.02 7 0 C7.66 0 8.32 0 9 0 C8.93039063 1.95679688 8.93039063 1.95679688 8.859375 3.953125 C8.60661969 14.14433623 8.96026931 22.4870858 13 32 C13.59833275 33.74492857 14.18297027 35.49464959 14.75 37.25 C15.1625 38.4875 15.575 39.725 16 41 C15.34 41 14.68 41 14 41 C13.4225 39.9275 12.845 38.855 12.25 37.75 C10.87948631 35.30265413 9.88258096 33.89562752 7.75 32 C6 30 6 30 5.6875 26.375 C6 23 6 23 7 21 C5.35 20.67 3.7 20.34 2 20 C2 18.35 2 16.7 2 15 C1.360625 14.87625 0.72125 14.7525 0.0625 14.625 C-0.618125 14.41875 -1.29875 14.2125 -2 14 C-3.32229189 11.35541621 -3.09677194 9.32238699 -3.0625 6.375 C-3.05347656 5.37210938 -3.04445313 4.36921875 -3.03515625 3.3359375 C-3.02355469 2.56507812 -3.01195312 1.79421875 -3 1 C-2.67 1.66 -2.34 2.32 -2 3 C-1.34 3 -0.68 3 0 3 C0 2.01 0 1.02 0 0 Z " fill="#2696C6" transform="translate(15,40)"/>
<path d="M0 0 C8.97680348 1.19690713 16.48262095 5.31639705 22.8046875 11.87109375 C27.29700348 17.83869693 28.36826638 23.88620528 28.3125 31.1875 C28.30621582 32.31079712 28.30621582 32.31079712 28.29980469 33.45678711 C28.10816556 42.93374993 25.52785727 50.72495051 21 59 C20.41015625 57.16796875 20.41015625 57.16796875 20 55 C20.474375 54.113125 20.94875 53.22625 21.4375 52.3125 C23.44223853 48.06245432 23.27678442 44.6130737 23 40 C22.01 40 21.02 40 20 40 C20 39.34 20 38.68 20 38 C19.34 37.67 18.68 37.34 18 37 C20.31 37 22.62 37 25 37 C25.20465827 31.24682865 25.24327131 26.41024258 23 21 C22.67 20.01 22.34 19.02 22 18 C18.48809191 16.77030122 18.48809191 16.77030122 15 16 C15 15.01 15 14.02 15 13 C15.33 13.66 15.66 14.32 16 15 C16.66 15 17.32 15 18 15 C17.67 13.68 17.34 12.36 17 11 C16.2575 10.855625 15.515 10.71125 14.75 10.5625 C12.47972261 10.09812508 10.24240521 9.58136431 8 9 C8 8.01 8 7.02 8 6 C7.01 6 6.02 6 5 6 C4.67 5.01 4.34 4.02 4 3 C2.00334686 1.31461399 2.00334686 1.31461399 0 0 Z " fill="#6FCFC6" transform="translate(92,13)"/>
<path d="M0 0 C0.66 0 1.32 0 2 0 C2 0.99 2 1.98 2 3 C2.33 2.01 2.66 1.02 3 0 C13.55808656 0.77904328 13.55808656 0.77904328 18 3 C18 4.32 18 5.64 18 7 C18.99 7 19.98 7 21 7 C21 7.99 21 8.98 21 10 C22.04800781 10.07347656 22.04800781 10.07347656 23.1171875 10.1484375 C24.02726562 10.22320312 24.93734375 10.29796875 25.875 10.375 C26.77992187 10.44460937 27.68484375 10.51421875 28.6171875 10.5859375 C31 11 31 11 33 13 C32.34 13 31.68 13 31 13 C31 13.99 31 14.98 31 16 C30.01 16 29.02 16 28 16 C29.093125 16.4125 30.18625 16.825 31.3125 17.25 C34.51043237 18.63533912 36.39199344 19.78398689 38 23 C38.1875 25.75 38.1875 25.75 38 28 C36.35 28.33 34.7 28.66 33 29 C31.87025478 26.25633303 30.89799327 23.62111786 30.125 20.75 C29.75375 19.8425 29.3825 18.935 29 18 C26.99427359 17.18553891 26.99427359 17.18553891 25 17 C24.67 16.34 24.34 15.68 24 15 C21.97536745 14.34786708 21.97536745 14.34786708 20 14 C20 13.34 20 12.68 20 12 C18.68 12 17.36 12 16 12 C16 11.34 16 10.68 16 10 C10.38145918 8.04911777 4.78886224 6.36827653 -1 5 C-0.67 3.35 -0.34 1.7 0 0 Z " fill="#4FB8B3" transform="translate(79,12)"/>
<path d="M0 0 C1.9375 0.6875 1.9375 0.6875 4 2 C5.93296607 6.25252535 4.27114882 9.61700953 2.7578125 13.734375 C1.86094319 16.18395674 1.86094319 16.18395674 1.5 19.625 C0.92895054 23.47958387 -0.36735953 26.47349659 -2 30 C-2.67276716 31.6642135 -3.34206835 33.32986582 -4 35 C-6.31 35 -8.62 35 -11 35 C-9.51026386 28.95627372 -7.74137262 23.16194631 -5.4375 17.375 C-3.40887039 12.2638281 -2.05970788 7.3868484 -1 2 C-0.67 1.34 -0.34 0.68 0 0 Z " fill="#0F0F0F" transform="translate(50,37)"/>
<path d="M0 0 C7.42857143 -0.28571429 7.42857143 -0.28571429 11 2 C10.67 3.65 10.34 5.3 10 7 C10.99 7 11.98 7 13 7 C13 7.66 13 8.32 13 9 C13.66 9 14.32 9 15 9 C15 8.34 15 7.68 15 7 C17 5 17 5 20.125 4.875 C21.07375 4.91625 22.0225 4.9575 23 5 C23 5.66 23 6.32 23 7 C23.66 7 24.32 7 25 7 C25.33 8.65 25.66 10.3 26 12 C26.66 12 27.32 12 28 12 C28 9.69 28 7.38 28 5 C28.66 5 29.32 5 30 5 C30.33 6.32 30.66 7.64 31 9 C31.66 9 32.32 9 33 9 C32.67 9.99 32.34 10.98 32 12 C28.82757352 13.31035007 26.44118336 14 23 14 C23 14.66 23 15.32 23 16 C19.53058454 15.54177532 16.32604951 15.10868317 13 14 C13.33 12.68 13.66 11.36 14 10 C13.34 10 12.68 10 12 10 C12 10.66 12 11.32 12 12 C11.34 12 10.68 12 10 12 C10 11.34 10 10.68 10 10 C9.2575 9.9175 8.515 9.835 7.75 9.75 C4.38573588 8.83247342 3.12940379 7.73780488 1 5 C0.25 2.25 0.25 2.25 0 0 Z " fill="#1B96C8" transform="translate(46,95)"/>
<path d="M0 0 C0.99 0 1.98 0 3 0 C3.79953138 3.28696233 4.09658936 4.71023192 3 8 C2.46215812 15.07468936 2.60109403 20.72509666 6 27 C6.226875 27.763125 6.45375 28.52625 6.6875 29.3125 C8.97917068 32.25893373 12.44551725 32.3120356 16 33 C16 33.33 16 33.66 16 34 C9.88738098 34.42155993 6.85272482 34.11426669 2 30 C1.43796875 29.59523438 0.8759375 29.19046875 0.296875 28.7734375 C-2.9962417 25.89580749 -4.12696725 23.2733898 -4.515625 18.9765625 C-4.57509804 17.46427145 -4.61113486 15.95089651 -4.625 14.4375 C-4.6357959 13.7050708 -4.6465918 12.9726416 -4.65771484 12.21801758 C-4.52546555 7.13216973 -3.43978897 3.95888439 0 0 Z " fill="#111111" transform="translate(69,38)"/>
<path d="M0 0 C-0.99 1.485 -0.99 1.485 -2 3 C-2.66 3 -3.32 3 -4 3 C-3.01 4.98 -2.02 6.96 -1 9 C1.9297008 6.17493137 4.50174717 3.21203935 7 0 C7.66 0.33 8.32 0.66 9 1 C8.27683594 1.87011719 8.27683594 1.87011719 7.5390625 2.7578125 C6.90742187 3.53898437 6.27578125 4.32015625 5.625 5.125 C4.68527344 6.27355469 4.68527344 6.27355469 3.7265625 7.4453125 C-1.307286 14.89358607 -0.93257051 23.80768804 0.60546875 32.37109375 C1.68240548 36.83737451 2.80588365 40.94565457 5 45 C0.77169489 42.8893535 -0.81080607 41.29286255 -2.3125 36.8125 C-4.78149592 28.6588401 -5.58856755 18.24974372 -3 10 C-3.66 10 -4.32 10 -5 10 C-5 10.99 -5 11.98 -5 13 C-7.475 12.01 -7.475 12.01 -10 11 C-9.33333333 9.33333333 -8.66666667 7.66666667 -8 6 C-7.71125 5.113125 -7.4225 4.22625 -7.125 3.3125 C-6 1 -6 1 -4 -0.375 C-2 -1 -2 -1 0 0 Z " fill="#569EBB" transform="translate(27,30)"/>
<path d="M0 0 C0 1.65 0 3.3 0 5 C-2.475 4.505 -2.475 4.505 -5 4 C-5.33 4.66 -5.66 5.32 -6 6 C-6.99 6 -7.98 6 -9 6 C-9.33 6.99 -9.66 7.98 -10 9 C-12.31939207 9.7136591 -14.65523449 10.3747292 -17 11 C-18.6829392 11.97236487 -20.35443434 12.96564444 -22 14 C-22.66 14 -23.32 14 -24 14 C-24.61875 14.61875 -25.2375 15.2375 -25.875 15.875 C-27.8855645 17.8855645 -29.34857 19.027809 -32 20 C-32.66 19.67 -33.32 19.34 -34 19 C-34 18.34 -34 17.68 -34 17 C-32.68 16.67 -31.36 16.34 -30 16 C-30 15.34 -30 14.68 -30 14 C-29.34 14 -28.68 14 -28 14 C-27.62875 12.88625 -27.2575 11.7725 -26.875 10.625 C-26.0625 8.6796875 -26.0625 8.6796875 -25 7 C-21.875 5.75 -21.875 5.75 -19 5 C-18.67 4.01 -18.34 3.02 -18 2 C-17.14728516 2.03480469 -17.14728516 2.03480469 -16.27734375 2.0703125 C-10.55822822 2.20398131 -5.44391946 0 0 0 Z " fill="#3FA6B4" transform="translate(55,11)"/>
<path d="M0 0 C5.97142857 4.4 5.97142857 4.4 7 8 C6.70663502 12.1804509 6.34075925 14.48886112 4 18 C2.68 18 1.36 18 0 18 C0 17.34 0 16.68 0 16 C-0.66 16.33 -1.32 16.66 -2 17 C-1.67 19.31 -1.34 21.62 -1 24 C-1.66 24 -2.32 24 -3 24 C-3.33 24.99 -3.66 25.98 -4 27 C-4.99 26.67 -5.98 26.34 -7 26 C-6.38632697 20.67220234 -5.16223783 15.84119702 -3.5 10.75 C-3.27441406 10.04359375 -3.04882812 9.3371875 -2.81640625 8.609375 C-1.89587441 5.73339387 -0.95491332 2.86473997 0 0 Z " fill="#30B9C0" transform="translate(106,57)"/>
<path d="M0 0 C0.495 0.99 0.495 0.99 1 2 C-9.9887778 7.99641428 -20.60362365 8.43851961 -32.6875 5.125 C-36.26171875 4.0703125 -36.26171875 4.0703125 -39 3 C-39.33 2.34 -39.66 1.68 -40 1 C-38.72769531 1.10828125 -38.72769531 1.10828125 -37.4296875 1.21875 C-18.29910187 3.59180838 -18.29910187 3.59180838 0 0 Z " fill="#608EAE" transform="translate(89,90)"/>
<path d="M0 0 C2.97 0 5.94 0 9 0 C9 0.66 9 1.32 9 2 C10.32 2 11.64 2 13 2 C20.32795226 13.79575988 21.99956783 23.78835964 19.15234375 37.37890625 C18.29131509 40.9930436 17.33619731 44.52783765 16 48 C15.01 48.495 15.01 48.495 14 49 C14.2165625 47.92363281 14.433125 46.84726563 14.65625 45.73828125 C18.44580092 27.06607907 18.44580092 27.06607907 14 9 C10.22189573 4.94854452 5.07800318 2.96902164 0 1 C0 0.67 0 0.34 0 0 Z " fill="#B1E0DE" transform="translate(86,22)"/>
<path d="M0 0 C0 0.33 0 0.66 0 1 C-3.3 0.67 -6.6 0.34 -10 0 C-9.505 1.485 -9.505 1.485 -9 3 C-9.66 3 -10.32 3 -11 3 C-11 2.01 -11 1.02 -11 0 C-11.66 0 -12.32 0 -13 0 C-13.33 0.99 -13.66 1.98 -14 3 C-14.66 3 -15.32 3 -16 3 C-16.33 2.01 -16.66 1.02 -17 0 C-19.29629994 -1.14814997 -21.07698086 -1.30769809 -23.625 -1.5625 C-24.44226563 -1.64628906 -25.25953125 -1.73007813 -26.1015625 -1.81640625 C-26.72804688 -1.87699219 -27.35453125 -1.93757812 -28 -2 C-28.33 -0.68 -28.66 0.64 -29 2 C-29 0.68 -29 -0.64 -29 -2 C-29.66 -2 -30.32 -2 -31 -2 C-31.33 -1.34 -31.66 -0.68 -32 0 C-32.33 -0.33 -32.66 -0.66 -33 -1 C-35.34987262 -1.23527773 -37.70556039 -1.41386417 -40.0625 -1.5625 C-41.35285156 -1.64628906 -42.64320312 -1.73007813 -43.97265625 -1.81640625 C-45.47119141 -1.90728516 -45.47119141 -1.90728516 -47 -2 C-47 -2.33 -47 -2.66 -47 -3 C-31.70907354 -6.25395148 -14.73950312 -4.92048986 0 0 Z " fill="#73C1C0" transform="translate(92,12)"/>
<path d="M0 0 C0.99 0 1.98 0 3 0 C3.02705729 1.77074917 3.04642195 3.54161711 3.0625 5.3125 C3.07410156 6.29863281 3.08570312 7.28476563 3.09765625 8.30078125 C3 11 3 11 2 14 C1.34 14 0.68 14 0 14 C0 12.68 0 11.36 0 10 C-0.928125 10.639375 -1.85625 11.27875 -2.8125 11.9375 C-6.68467408 14.4430244 -9.17925935 15.12783682 -13.6875 15.0625 C-14.89986328 15.04896484 -14.89986328 15.04896484 -16.13671875 15.03515625 C-17.05904297 15.01775391 -17.05904297 15.01775391 -18 15 C-16.68 14.34 -15.36 13.68 -14 13 C-14.598125 12.7525 -15.19625 12.505 -15.8125 12.25 C-18.36513531 10.79135125 -19.56732558 9.56373318 -21 7 C-20.6875 4.75 -20.6875 4.75 -20 3 C-19.401875 3.94875 -18.80375 4.8975 -18.1875 5.875 C-16.18437474 9.13964197 -16.18437474 9.13964197 -13 11 C-9.27057464 10.84130105 -7.52886613 10.48479395 -4.75 7.9375 C-4.1725 7.298125 -3.595 6.65875 -3 6 C-2.34 6 -1.68 6 -1 6 C-0.67 4.02 -0.34 2.04 0 0 Z " fill="#B0B3B3" transform="translate(95,58)"/>
<path d="M0 0 C2.4375 0.75 2.4375 0.75 5 2 C5.8125 4.125 5.8125 4.125 6 6 C6.66 6 7.32 6 8 6 C8.55165303 11.65444353 7.1465863 14.4549309 4 19 C0.65957214 21.64930485 -2.86696196 21.3625472 -7 21 C-9.9375 19.6875 -9.9375 19.6875 -12 18 C-12 17.01 -12 16.02 -12 15 C-11.195625 15.2165625 -11.195625 15.2165625 -10.375 15.4375 C-9.59125 15.623125 -8.8075 15.80875 -8 16 C-7.030625 16.2475 -6.06125 16.495 -5.0625 16.75 C-1.32884542 17.05478813 0.07476285 16.25661151 3 14 C4.54586876 10.90826248 4.29359521 8.40570448 4 5 C2.12498069 2.62280307 2.12498069 2.62280307 0 1 C0 0.67 0 0.34 0 0 Z " fill="#A5A7A7" transform="translate(64,65)"/>
<path d="M0 0 C1.32 0.33 2.64 0.66 4 1 C4 1.66 4 2.32 4 3 C6.31 3.66 8.62 4.32 11 5 C11 5.66 11 6.32 11 7 C11.66 7 12.32 7 13 7 C13 6.34 13 5.68 13 5 C13.66 5 14.32 5 15 5 C14.67 6.32 14.34 7.64 14 9 C17.3 9.66 20.6 10.32 24 11 C23.67 10.01 23.34 9.02 23 8 C26.63 8 30.26 8 34 8 C28.99839703 12.19053221 25.67083316 13.30782258 19.265625 13.21484375 C15.96624228 12.90197125 13.80891397 11.73315969 11 10 C10.32710937 9.62488281 9.65421875 9.24976562 8.9609375 8.86328125 C4.7774509 6.4520717 2.07465036 4.53829765 0 0 Z " fill="#4D9ABF" transform="translate(45,100)"/>
<path d="M0 0 C0 0.99 0 1.98 0 3 C-1.134375 3.474375 -2.26875 3.94875 -3.4375 4.4375 C-6.75740166 5.63622083 -6.75740166 5.63622083 -8 7 C-7.01 7.33 -6.02 7.66 -5 8 C-5 10 -5 10 -7.1875 12.3125 C-8.115625 13.199375 -9.04375 14.08625 -10 15 C-10.928125 15.928125 -11.85625 16.85625 -12.8125 17.8125 C-13.534375 18.534375 -14.25625 19.25625 -15 20 C-18 16.375 -18 16.375 -18 13 C-17.34 13 -16.68 13 -16 13 C-15.731875 12.195625 -15.46375 11.39125 -15.1875 10.5625 C-14.5996875 9.2940625 -14.5996875 9.2940625 -14 8 C-13.01 7.67 -12.02 7.34 -11 7 C-10.67 6.01 -10.34 5.02 -10 4 C-7.625 2.9375 -7.625 2.9375 -5 2 C-2 0 -2 0 0 0 Z " fill="#46A7BC" transform="translate(41,20)"/>
<path d="M0 0 C2.4375 1.1875 2.4375 1.1875 5 3 C5.8125 5.6875 5.8125 5.6875 6 8 C7.32 8.33 8.64 8.66 10 9 C9.93039063 9.56847656 9.86078125 10.13695312 9.7890625 10.72265625 C9.41442507 15.51471636 9.41442507 15.51471636 11.1953125 19.83984375 C12.24648736 20.96232947 13.31488083 22.06889657 14.3984375 23.16015625 C17.14616943 26.31669708 18.50824477 30.13021144 20 34 C17 33 17 33 15 30 C15 29.01 15 28.02 15 27 C14.34 27 13.68 27 13 27 C11.60878394 25.02459365 10.35381593 23.07357365 9.125 21 C8.58927368 20.10849243 8.58927368 20.10849243 8.04272461 19.19897461 C0.68445327 6.84453273 0.68445327 6.84453273 0 0 Z " fill="#5BA1C3" transform="translate(12,52)"/>
<path d="M0 0 C2.48613471 3.72920207 2.34438431 6.67920776 2.3125 11 C2.30831055 11.7623999 2.30412109 12.5247998 2.29980469 13.31030273 C2.11029446 22.85133639 -0.43982074 30.66587929 -5 39 C-5.58984375 37.16796875 -5.58984375 37.16796875 -6 35 C-5.525625 34.113125 -5.05125 33.22625 -4.5625 32.3125 C-2.55776147 28.06245432 -2.72321558 24.6130737 -3 20 C-3.99 20 -4.98 20 -6 20 C-6 19.34 -6 18.68 -6 18 C-6.66 17.67 -7.32 17.34 -8 17 C-5.69 17 -3.38 17 -1 17 C-1 16.34 -1 15.68 -1 15 C-0.34 15 0.32 15 1 15 C0.67 10.05 0.34 5.1 0 0 Z " fill="#69CDC7" transform="translate(118,33)"/>
<path d="M0 0 C1.32 0 2.64 0 4 0 C4.268125 0.78375 4.53625 1.5675 4.8125 2.375 C5.84814432 5.28114923 5.84814432 5.28114923 9 7 C9.99 7 10.98 7 12 7 C12.125 14.75 12.125 14.75 11 17 C10.34 17 9.68 17 9 17 C9 15.68 9 14.36 9 13 C7.35 12.67 5.7 12.34 4 12 C4 11.34 4 10.68 4 10 C3.34 10 2.68 10 2 10 C0.68373308 6.38026598 0 3.90432869 0 0 Z " fill="#18CEBF" transform="translate(106,33)"/>
<path d="M0 0 C0.66 0.33 1.32 0.66 2 1 C2 1.66 2 2.32 2 3 C2.99 4.485 2.99 4.485 4 6 C-1.37815126 10.03361345 -1.37815126 10.03361345 -4.3125 9.875 C-6 9 -6 9 -7 7 C-12.28 7 -17.56 7 -23 7 C-23 6.67 -23 6.34 -23 6 C-21.84242187 5.81824219 -20.68484375 5.63648437 -19.4921875 5.44921875 C-17.95304092 5.19582267 -16.41398298 4.94188781 -14.875 4.6875 C-13.73417969 4.51057617 -13.73417969 4.51057617 -12.5703125 4.33007812 C-7.86229616 3.53864434 -4.27358997 2.2147328 0 0 Z " fill="#2792BA" transform="translate(88,92)"/>
<path d="M0 0 C0.99 0.33 1.98 0.66 3 1 C3 1.66 3 2.32 3 3 C3.7425 3.28875 4.485 3.5775 5.25 3.875 C7.56739797 4.82302644 9.77917115 5.84845911 12 7 C12 6.01 12 5.02 12 4 C12.66 4 13.32 4 14 4 C14 8.62 14 13.24 14 18 C13.34 18 12.68 18 12 18 C11.608125 16.9275 11.21625 15.855 10.8125 14.75 C8.75043854 9.91246245 5.28070623 7.85380415 1 5 C-0.9896995 4.60986284 -2.99019869 4.26797351 -5 4 C-5 3.67 -5 3.34 -5 3 C-3.35 2.67 -1.7 2.34 0 2 C0 1.34 0 0.68 0 0 Z " fill="#9B9D9D" transform="translate(83,29)"/>
<path d="M0 0 C1.05896484 -0.00773437 2.11792969 -0.01546875 3.20898438 -0.0234375 C8.88391872 -0.00927672 13.70865812 0.33084188 19.0625 2.25 C19.0625 2.58 19.0625 2.91 19.0625 3.25 C18.43384033 3.2092334 17.80518066 3.1684668 17.1574707 3.12646484 C-5.33317509 1.41255602 -5.33317509 1.41255602 -25.9375 9.25 C-27.58741582 9.95710678 -29.24579042 10.64971596 -30.9375 11.25 C-27.10718294 6.94089331 -23.25811945 4.45329449 -17.9375 2.25 C-17.10992187 1.88777344 -16.28234375 1.52554687 -15.4296875 1.15234375 C-10.28797886 -0.17621855 -5.28769892 -0.03847931 0 0 Z " fill="#B5E7E5" transform="translate(66.9375,18.75)"/>
<path d="M0 0 C0.66 0.33 1.32 0.66 2 1 C1.360625 1.556875 0.72125 2.11375 0.0625 2.6875 C-2.19680987 5.22066561 -2.63149047 6.68341424 -3 10 C-2.01 10.33 -1.02 10.66 0 11 C0 12.32 0 13.64 0 15 C-2.31 15 -4.62 15 -7 15 C-7.11521265 20.41499441 -6.68201156 25.62915894 -6 31 C-9.67976021 25.48035968 -9.77056315 19.48985408 -9 13 C-7.09388934 7.46465463 -4.93295189 3.2886346 0 0 Z " fill="#56A6BF" transform="translate(18,21)"/>
<path d="M0 0 C0.33 0.66 0.66 1.32 1 2 C1.66 2 2.32 2 3 2 C3.33 2.66 3.66 3.32 4 4 C6.02463255 4.65213292 6.02463255 4.65213292 8 5 C7.67 6.65 7.34 8.3 7 10 C6.34 10 5.68 10 5 10 C5 10.66 5 11.32 5 12 C5.99 12 6.98 12 8 12 C8.33 13.98 8.66 15.96 9 18 C8.01 17.67 7.02 17.34 6 17 C6 16.01 6 15.02 6 14 C4.68 14 3.36 14 2 14 C2 13.34 2 12.68 2 12 C1.34 12 0.68 12 0 12 C0 8.04 0 4.08 0 0 Z " fill="#38C8C0" transform="translate(107,41)"/>
<path d="M0 0 C1.051875 -0.01417969 2.10375 -0.02835938 3.1875 -0.04296875 C6 0.1875 6 0.1875 9 2.1875 C8.67 3.5075 8.34 4.8275 8 6.1875 C2.39 5.8575 -3.22 5.5275 -9 5.1875 C-9 3.8675 -9 2.5475 -9 1.1875 C-5.79226388 0.11825463 -3.37015182 0.02065044 0 0 Z " fill="#4DABAF" transform="translate(67,9.8125)"/>
<path d="M0 0 C0.99 0.33 1.98 0.66 3 1 C1.7580393 4.43927579 0.44259716 7.25207819 -2 10 C-2.66 10 -3.32 10 -4 10 C-4 10.99 -4 11.98 -4 13 C-4.66 13 -5.32 13 -6 13 C-6.66 14.32 -7.32 15.64 -8 17 C-9.17661508 13.32307787 -9.14475933 9.8361222 -9 6 C-8 5 -8 5 -4.9375 4.9375 C-3.4834375 4.9684375 -3.4834375 4.9684375 -2 5 C-1.855625 4.360625 -1.71125 3.72125 -1.5625 3.0625 C-1 1 -1 1 0 0 Z " fill="#3999BC" transform="translate(19,30)"/>
<path d="M0 0 C4.75 1.875 4.75 1.875 7 3 C7 2.01 7 1.02 7 0 C7.66 0 8.32 0 9 0 C8.85930804 2.12534659 8.71229079 4.25027529 8.5625 6.375 C8.48128906 7.55835938 8.40007813 8.74171875 8.31640625 9.9609375 C8 13 8 13 7 15 C6.01 14.67 5.02 14.34 4 14 C4.185625 13.401875 4.37125 12.80375 4.5625 12.1875 C5.22093687 9.83591238 5.22093687 9.83591238 4 7 C2.02 7.66 0.04 8.32 -2 9 C-2 8.34 -2 7.68 -2 7 C-1.34 7 -0.68 7 0 7 C0 6.34 0 5.68 0 5 C0.66 5 1.32 5 2 5 C2 4.34 2 3.68 2 3 C1.34 3 0.68 3 0 3 C0 2.01 0 1.02 0 0 Z " fill="#1F9DC5" transform="translate(15,40)"/>
<path d="M0 0 C-1.1875 1.5 -1.1875 1.5 -3 3 C-5.6875 3.1875 -5.6875 3.1875 -8 3 C-8.66 5.64 -9.32 8.28 -10 11 C-13.3 11.33 -16.6 11.66 -20 12 C-19.67 11.01 -19.34 10.02 -19 9 C-18.01 9 -17.02 9 -16 9 C-16 8.01 -16 7.02 -16 6 C-14.35 6 -12.7 6 -11 6 C-10.62875 4.824375 -10.62875 4.824375 -10.25 3.625 C-9 1 -9 1 -7.1875 -0.375 C-4.4719851 -1.1508614 -2.69201151 -0.74778098 0 0 Z " fill="#2BADBE" transform="translate(38,15)"/>
<path d="M0 0 C0.99 0.99 1.98 1.98 3 3 C1.71186658 3.83878455 0.41936744 4.67086783 -0.875 5.5 C-1.59429687 5.9640625 -2.31359375 6.428125 -3.0546875 6.90625 C-5 8 -5 8 -7 8 C-7.61875 8.61875 -8.2375 9.2375 -8.875 9.875 C-10.8855645 11.8855645 -12.34857 13.027809 -15 14 C-15.66 13.67 -16.32 13.34 -17 13 C-17 12.34 -17 11.68 -17 11 C-15.68 10.67 -14.36 10.34 -13 10 C-13 9.34 -13 8.68 -13 8 C-12.34 8 -11.68 8 -11 8 C-10.7525 7.195625 -10.505 6.39125 -10.25 5.5625 C-9 3 -9 3 -6.875 2.1875 C-6.25625 2.125625 -5.6375 2.06375 -5 2 C-5 2.66 -5 3.32 -5 4 C-5.66 4 -6.32 4 -7 4 C-7 4.66 -7 5.32 -7 6 C-6.34 5.67 -5.68 5.34 -5 5 C-4.67 4.01 -4.34 3.02 -4 2 C-1.9375 0.8125 -1.9375 0.8125 0 0 Z " fill="#36869D" transform="translate(38,17)"/>
<path d="M0 0 C0.66 0.33 1.32 0.66 2 1 C1.27683594 1.87011719 1.27683594 1.87011719 0.5390625 2.7578125 C-0.09257813 3.53898437 -0.72421875 4.32015625 -1.375 5.125 C-2.31472656 6.27355469 -2.31472656 6.27355469 -3.2734375 7.4453125 C-8.847515 15.69292944 -7.69533279 25.93973156 -6 35.3125 C-5.67852014 36.87748181 -5.34988809 38.44112358 -5 40 C-7 39 -7 39 -8.0859375 36.57421875 C-10.22396671 28.21397633 -11.58633639 16.0116478 -7.24609375 8.21484375 C-5.30693943 5.5818954 -3.36139377 3.25655388 -1 1 C-0.67 0.67 -0.34 0.34 0 0 Z " fill="#C3E0E7" transform="translate(34,30)"/>
<path d="M0 0 C1.4391134 0.28359887 2.87625518 0.57721399 4.3125 0.875 C5.11300781 1.03742187 5.91351563 1.19984375 6.73828125 1.3671875 C9 2 9 2 12 4 C12 4.99 12 5.98 12 7 C14.475 7.99 14.475 7.99 17 9 C17 9.66 17 10.32 17 11 C13.97580475 10.41196203 10.98241547 9.77321882 8 9 C8 8.01 8 7.02 8 6 C7.01 6 6.02 6 5 6 C4.67 5.01 4.34 4.02 4 3 C2.00334686 1.31461399 2.00334686 1.31461399 0 0 Z " fill="#30CEBC" transform="translate(92,13)"/>
<path d="M0 0 C2.97 0 5.94 0 9 0 C9 0.66 9 1.32 9 2 C10.32 2 11.64 2 13 2 C16.82735898 7.90506815 18.64317031 11.92512658 18 19 C17.67 19 17.34 19 17 19 C16.86464844 18.33613281 16.72929688 17.67226563 16.58984375 16.98828125 C15.0653859 10.67235643 15.0653859 10.67235643 10.75 6.0625 C7.32385102 4.00242748 3.72257842 2.44344878 0 1 C0 0.67 0 0.34 0 0 Z " fill="#B7E9E6" transform="translate(86,22)"/>
<path d="M0 0 C0 3.56229451 -0.76109009 4.41109679 -2.875 7.1875 C-3.40867187 7.90292969 -3.94234375 8.61835937 -4.4921875 9.35546875 C-4.98976563 9.89816406 -5.48734375 10.44085938 -6 11 C-6.66 11 -7.32 11 -8 11 C-8.268125 11.598125 -8.53625 12.19625 -8.8125 12.8125 C-9.98493467 14.97224808 -11.19369282 16.35790256 -13 18 C-13.66 17.67 -14.32 17.34 -15 17 C-15 16.01 -15 15.02 -15 14 C-15.66 13.34 -16.32 12.68 -17 12 C-14.92446352 11.4465236 -13.15634036 11 -11 11 C-6.60282237 7.94640442 -3.35973367 4.11018964 0 0 Z " fill="#70B8C9" transform="translate(105,82)"/>
<path d="M0 0 C1.52079821 3.890631 0.41729284 6.20553308 -1.1875 9.9375 C-1.61417969 10.95714844 -2.04085937 11.97679688 -2.48046875 13.02734375 C-4.03433017 16.06716004 -5.69161843 18.48807376 -8 21 C-8.66 21 -9.32 21 -10 21 C-8.73147656 17.72298112 -7.38102094 14.48097064 -6 11.25 C-5.67 10.47140625 -5.34 9.6928125 -5 8.890625 C-4 7 -4 7 -2 6 C-1.27306096 4.02111039 -0.60183749 2.02045442 0 0 Z " fill="#76AFB6" transform="translate(103,64)"/>
<path d="M0 0 C2.4375 0.75 2.4375 0.75 5 2 C5.8125 4.125 5.8125 4.125 6 6 C6.66 6 7.32 6 8 6 C8.31428571 12.91428571 8.31428571 12.91428571 6 16 C3.375 17.25 3.375 17.25 1 18 C1.495 17.154375 1.99 16.30875 2.5 15.4375 C4.1933722 11.55685537 4.54291117 9.18817186 4 5 C2.12498069 2.62280307 2.12498069 2.62280307 0 1 C0 0.67 0 0.34 0 0 Z " fill="#9D9FA0" transform="translate(64,65)"/>
<path d="M0 0 C1.5625 1.0625 1.5625 1.0625 3 3 C2.6875 6.6875 2.6875 6.6875 2 10 C-2.75 8.125 -2.75 8.125 -5 7 C-5 6.01 -5 5.02 -5 4 C-4.34 4 -3.68 4 -3 4 C-3 3.34 -3 2.68 -3 2 C-2.01 1.34 -1.02 0.68 0 0 Z " fill="#27BDBE" transform="translate(110,62)"/>
<path d="M0 0 C1.24523437 0.01804687 2.49046875 0.03609375 3.7734375 0.0546875 C5.18496094 0.08949219 5.18496094 0.08949219 6.625 0.125 C5.635 0.62 5.635 0.62 4.625 1.125 C4.295 1.785 3.965 2.445 3.625 3.125 C1.645 3.125 -0.335 3.125 -2.375 3.125 C-2.705 3.785 -3.035 4.445 -3.375 5.125 C-3.375 4.465 -3.375 3.805 -3.375 3.125 C-9.315 3.62 -9.315 3.62 -15.375 4.125 C-11.0899826 -0.1600174 -5.77533274 -0.10896854 0 0 Z " fill="#64B7BE" transform="translate(48.375,9.875)"/>
<path d="M0 0 C3.63 0 7.26 0 11 0 C6.79799694 3.52059716 4.00132728 5.14165561 -1.5 5.1875 C-2.66015625 5.20876953 -2.66015625 5.20876953 -3.84375 5.23046875 C-6 5 -6 5 -9 3 C-5.7 3 -2.4 3 1 3 C0.67 2.01 0.34 1.02 0 0 Z " fill="#81AFC6" transform="translate(68,108)"/>
<path d="M0 0 C2.27837542 2.27837542 2.96646289 3.50812237 3.1875 6.75 C3.125625 7.4925 3.06375 8.235 3 9 C1.35 9.33 -0.3 9.66 -2 10 C-3.23921302 7.02588876 -4.30058404 4.14737182 -5 1 C-3 0 -3 0 0 0 Z " fill="#4EB4B2" transform="translate(114,31)"/>
<path d="M0 0 C0.99 1.051875 0.99 1.051875 2 2.125 C8.19302432 8.2659821 15.11897081 12.3501791 23 16 C19.30581799 17.231394 16.7943739 16.64432764 13 16 C13 15.34 13 14.68 13 14 C11.11434395 12.36136152 11.11434395 12.36136152 8.75 10.6875 C5.29722069 8.07752509 2.40378749 5.65793748 0 2 C0 1.34 0 0.68 0 0 Z " fill="#A0B4CB" transform="translate(32,75)"/>
<path d="M0 0 C0.66 0.33 1.32 0.66 2 1 C2 1.66 2 2.32 2 3 C2.763125 3 3.52625 3 4.3125 3 C6.20833333 3 8.10416667 3 10 3 C8.92456217 3.98783194 7.83926783 4.96493943 6.75 5.9375 C5.84507813 6.75541016 5.84507813 6.75541016 4.921875 7.58984375 C2.91532695 9.06212799 1.42997551 9.57529189 -1 10 C-0.34 8.68 0.32 7.36 1 6 C0.34 5.67 -0.32 5.34 -1 5 C-0.67 3.35 -0.34 1.7 0 0 Z " fill="#66ADC8" transform="translate(80,98)"/>
<path d="M0 0 C0.99 0 1.98 0 3 0 C3.125 7.75 3.125 7.75 2 10 C1.34 10 0.68 10 0 10 C0 8.68 0 7.36 0 6 C-1.32 6 -2.64 6 -4 6 C-4 4.68 -4 3.36 -4 2 C-2.68 2 -1.36 2 0 2 C0 1.34 0 0.68 0 0 Z " fill="#07CDBF" transform="translate(115,40)"/>
<path d="M0 0 C2.375 -0.1875 2.375 -0.1875 5 0 C5.66 0.99 6.32 1.98 7 3 C1.64347826 7.0173913 1.64347826 7.0173913 -1.3125 6.9375 C-3 6 -3 6 -4 3 C-2.68 2.34 -1.36 1.68 0 1 C0 0.67 0 0.34 0 0 Z " fill="#2CA3C1" transform="translate(85,95)"/>
<path d="M0 0 C2 0 2 0 3.4375 1.375 C3.953125 1.91125 4.46875 2.4475 5 3 C5.99 3.66 6.98 4.32 8 5 C8 5.99 8 6.98 8 8 C8.66 8 9.32 8 10 8 C10 8.66 10 9.32 10 10 C10.99 10.33 11.98 10.66 13 11 C13 11.99 13 12.98 13 14 C6.91884513 11.52249246 3.3404439 6.44368636 0 1 C0 0.67 0 0.34 0 0 Z " fill="#6B9FBD" transform="translate(32,86)"/>
<path d="M0 0 C-0.7115625 0.6496875 -0.7115625 0.6496875 -1.4375 1.3125 C-3.23686957 3.02309613 -3.23686957 3.02309613 -4 6 C-4.99 6.495 -4.99 6.495 -6 7 C-6.99 8.485 -6.99 8.485 -8 10 C-10 7 -10 7 -10 4 C-9.34 4 -8.68 4 -8 4 C-7.71125 3.360625 -7.4225 2.72125 -7.125 2.0625 C-5.18025038 -1.5028743 -3.54277596 -1.06283279 0 0 Z " fill="#12A7C4" transform="translate(33,29)"/>
<path d="M0 0 C1.32 0.33 2.64 0.66 4 1 C3.67 2.32 3.34 3.64 3 5 C8.28 5 13.56 5 19 5 C19.33 5.66 19.66 6.32 20 7 C13.25766581 7.12910853 6.69613196 6.797837 0 6 C0 4.02 0 2.04 0 0 Z " fill="#4EC1C0" transform="translate(55,10)"/>
<path d="M0 0 C0.33 0.99 0.66 1.98 1 3 C1.66 3.165 2.32 3.33 3 3.5 C3.66 3.665 4.32 3.83 5 4 C5.33 4.99 5.66 5.98 6 7 C5.01 7 4.02 7 3 7 C3 8.32 3 9.64 3 11 C3.99 11.33 4.98 11.66 6 12 C5.34 12 4.68 12 4 12 C3.67 12.66 3.34 13.32 3 14 C1.02 9.71 -0.96 5.42 -3 1 C-2.01 0.67 -1.02 0.34 0 0 Z " fill="#3DC8BB" transform="translate(103,26)"/>
<path d="M0 0 C0.66 0 1.32 0 2 0 C2 0.99 2 1.98 2 3 C3.11375 2.690625 3.11375 2.690625 4.25 2.375 C7.32330841 1.95591249 8.42786866 2.38050989 11 4 C10.67 4.99 10.34 5.98 10 7 C6.37 6.34 2.74 5.68 -1 5 C-0.67 3.35 -0.34 1.7 0 0 Z " fill="#43959E" transform="translate(79,12)"/>
<path d="M0 0 C2.80695855 2.72440094 5.40514904 5.46580138 7.875 8.5 C10.86103792 12.05369617 14.13454795 14.44880164 18 17 C17.34 17.33 16.68 17.66 16 18 C2.45246812 8.71026386 2.45246812 8.71026386 0.30859375 1.7578125 C0.20675781 1.17773438 0.10492187 0.59765625 0 0 Z " fill="#2D6996" transform="translate(28,72)"/>
<path d="M0 0 C0.66 0 1.32 0 2 0 C2.226875 0.556875 2.45375 1.11375 2.6875 1.6875 C3.93966383 4.16778582 3.93966383 4.16778582 6.375 6.1875 C9.70332045 9.75355762 11.24496505 13.49965897 13 18 C10 17 10 17 8 14 C8 13.01 8 12.02 8 11 C7.34 11 6.68 11 6 11 C4.4921875 8.84765625 4.4921875 8.84765625 2.875 6.0625 C2.33617187 5.14597656 1.79734375 4.22945313 1.2421875 3.28515625 C0 1 0 1 0 0 Z " fill="#80AAC0" transform="translate(19,68)"/>
<path d="M0 0 C0.93065133 2.60582371 1.14917407 3.64198224 0.0625 6.25 C-0.4634375 7.11625 -0.4634375 7.11625 -1 8 C2.465 7.505 2.465 7.505 6 7 C6.66 5.35 7.32 3.7 8 2 C8.33 2 8.66 2 9 2 C9 4.31 9 6.62 9 9 C4.71 9 0.42 9 -4 9 C-4 8.01 -4 7.02 -4 6 C-3.34 5.67 -2.68 5.34 -2 5 C-1.27840576 3.35636866 -0.60648579 1.68949614 0 0 Z " fill="#B9BBBB" transform="translate(40,64)"/>
<path d="M0 0 C1.32 0.33 2.64 0.66 4 1 C3.01 1 2.02 1 1 1 C0.938125 1.598125 0.87625 2.19625 0.8125 2.8125 C0 5 0 5 -2.25 6.875 C-5 8 -5 8 -7.8125 7.1875 C-8.534375 6.795625 -9.25625 6.40375 -10 6 C-6.79663178 3.16625119 -4.21912747 2.4794463 0 2 C0 1.34 0 0.68 0 0 Z " fill="#2BB0C2" transform="translate(41,21)"/>
<path d="M0 0 C0.99 0.33 1.98 0.66 3 1 C1.7580393 4.43927579 0.44259716 7.25207819 -2 10 C-2.66 10 -3.32 10 -4 10 C-4.33 8.35 -4.66 6.7 -5 5 C-4.01 5 -3.02 5 -2 5 C-1.7834375 4.0409375 -1.7834375 4.0409375 -1.5625 3.0625 C-1 1 -1 1 0 0 Z " fill="#34829E" transform="translate(19,30)"/>
<path d="M0 0 C0.33 0.66 0.66 1.32 1 2 C0.00390625 3.9453125 0.00390625 3.9453125 -1.4375 6.125 C-1.91058594 6.84945312 -2.38367188 7.57390625 -2.87109375 8.3203125 C-3.24363281 8.87460938 -3.61617188 9.42890625 -4 10 C-4.33 9.34 -4.66 8.68 -5 8 C-4.67 7.34 -4.34 6.68 -4 6 C-4.99 6.33 -5.98 6.66 -7 7 C-7.33 5.02 -7.66 3.04 -8 1 C-7.01 1 -6.02 1 -5 1 C-5 1.66 -5 2.32 -5 3 C-3.68 3 -2.36 3 -1 3 C-0.67 2.01 -0.34 1.02 0 0 Z " fill="#67C4CD" transform="translate(111,72)"/>
<path d="M0 0 C2 1.375 2 1.375 4 3 C4 3.66 4 4.32 4 5 C6.64 5.66 9.28 6.32 12 7 C12 7.33 12 7.66 12 8 C6.60550707 8.27429625 3.48074195 8.36055646 -1 5 C-0.67 3.35 -0.34 1.7 0 0 Z " fill="#2A2C2C" transform="translate(73,64)"/>
<path d="M0 0 C0.83917969 0.02578125 1.67835937 0.0515625 2.54296875 0.078125 C3.86361328 0.11679688 3.86361328 0.11679688 5.2109375 0.15625 C8.098455 0.35322794 10.89805418 0.7318272 13.73046875 1.328125 C13.73046875 1.658125 13.73046875 1.988125 13.73046875 2.328125 C4.32546875 2.823125 4.32546875 2.823125 -5.26953125 3.328125 C-2.26953125 0.328125 -2.26953125 0.328125 0 0 Z " fill="#35BCBC" transform="translate(57.26953125,15.671875)"/>
<path d="M0 0 C0.33 0.66 0.66 1.32 1 2 C0.690625 2.886875 0.38125 3.77375 0.0625 4.6875 C-1.97763981 11.04793587 -0.82662773 17.49030664 0 24 C-3.70574756 18.44137866 -3.56552086 12.53176591 -3 6 C-1.5 2.3125 -1.5 2.3125 0 0 Z " fill="#81AEC2" transform="translate(12,28)"/>
<path d="M0 0 C-0.61875 0.2475 -1.2375 0.495 -1.875 0.75 C-4.35068687 2.20628639 -4.95125002 3.37812506 -6 6 C-8.31 6 -10.62 6 -13 6 C-5.46629213 -1.95224719 -5.46629213 -1.95224719 0 0 Z " fill="#61B0BD" transform="translate(33,15)"/>
<path d="M0 0 C0.28875 0.639375 0.5775 1.27875 0.875 1.9375 C1.82823451 4.15206079 1.82823451 4.15206079 4 5 C0.37 5 -3.26 5 -7 5 C-7 3.68 -7 2.36 -7 1 C-4 0 -4 0 0 0 Z " fill="#348695" transform="translate(65,10)"/>
<path d="M0 0 C2.5625 1.9375 2.5625 1.9375 5 5 C5.14543237 8.10601995 4.6663569 10.97170479 4 14 C3.34 14 2.68 14 2 14 C2 10.37 2 6.74 2 3 C0.35 3.66 -1.3 4.32 -3 5 C-1.125 1.125 -1.125 1.125 0 0 Z " fill="#B5B7B7" transform="translate(70,35)"/>
<path d="M0 0 C0 1.65 0 3.3 0 5 C-1.65 4.67 -3.3 4.34 -5 4 C-5.33 4.66 -5.66 5.32 -6 6 C-6.66 6 -7.32 6 -8 6 C-8.33 4.68 -8.66 3.36 -9 2 C-2.25 0 -2.25 0 0 0 Z " fill="#378494" transform="translate(55,11)"/>
<path d="M0 0 C0.33 0 0.66 0 1 0 C1 3.3 1 6.6 1 10 C-1.475 9.01 -1.475 9.01 -4 8 C-2.87548273 5.0280615 -1.77706209 2.66559313 0 0 Z " fill="#3B9FC3" transform="translate(21,33)"/>
<path d="M0 0 C0 0.33 0 0.66 0 1 C-0.94875 1.20625 -1.8975 1.4125 -2.875 1.625 C-7.36666565 2.86503039 -10.99183572 5.32391095 -14.86328125 7.85546875 C-15.56839844 8.23316406 -16.27351563 8.61085938 -17 9 C-17.66 8.67 -18.32 8.34 -19 8 C-13.39602203 3.09651928 -7.67510814 -0.76751081 0 0 Z " fill="#C4E8EA" transform="translate(55,21)"/>
<path d="M0 0 C0.33 0 0.66 0 1 0 C0.5188509 5.77378925 -1.18467181 9.95859836 -4 15 C-5.11346788 12.19966161 -5.03510273 11.09856297 -4.00390625 8.203125 C-3.52824219 7.22859375 -3.05257812 6.2540625 -2.5625 5.25 C-2.08941406 4.26515625 -1.61632812 3.2803125 -1.12890625 2.265625 C-0.75636719 1.51796875 -0.38382812 0.7703125 0 0 Z " fill="#9DD6D5" transform="translate(117,57)"/>
<path d="M0 0 C-2.69007598 2.69007598 -5.36855815 3.02729236 -9 4 C-9.99 4.495 -9.99 4.495 -11 5 C-11.33 3.68 -11.66 2.36 -12 1 C-7.67265609 -1.22923777 -4.71599818 -0.92470553 0 0 Z " fill="#ADAFAF" transform="translate(50,34)"/>
<path d="M0 0 C4.96916636 0.51405169 9.29026351 1.23384882 14 3 C14 3.33 14 3.66 14 4 C10.7 3.67 7.4 3.34 4 3 C4.33 3.99 4.66 4.98 5 6 C4.34 6 3.68 6 3 6 C3 4.68 3 3.36 3 2 C2.01 1.67 1.02 1.34 0 1 C0 0.67 0 0.34 0 0 Z " fill="#85CCC7" transform="translate(78,9)"/>
<path d="M0 0 C0.33 0.66 0.66 1.32 1 2 C-5.89715536 6.07877462 -5.89715536 6.07877462 -10.5 5.75 C-11.325 5.5025 -12.15 5.255 -13 5 C-13 4.67 -13 4.34 -13 4 C-8.71 2.68 -4.42 1.36 0 0 Z " fill="#2A7494" transform="translate(89,90)"/>
<path d="M0 0 C2.4375 0.8125 2.4375 0.8125 5 2 C5.33 2.99 5.66 3.98 6 5 C5.67 5.66 5.34 6.32 5 7 C4.01 6.67 3.02 6.34 2 6 C2 5.34 2 4.68 2 4 C1.01 3.67 0.02 3.34 -1 3 C-0.67 2.01 -0.34 1.02 0 0 Z " fill="#3A8994" transform="translate(97,20)"/>
<path d="M0 0 C1.44010481 0.25662245 2.8770687 0.53090821 4.3125 0.8125 C5.11300781 0.96332031 5.91351563 1.11414063 6.73828125 1.26953125 C9.23445587 2.07572236 10.32422106 3.02052002 12 5 C10.824375 4.9690625 10.824375 4.9690625 9.625 4.9375 C7.01885039 4.81315937 7.01885039 4.81315937 5 6 C4.67 5.01 4.34 4.02 4 3 C2.00334686 1.31461399 2.00334686 1.31461399 0 0 Z " fill="#7FD5C8" transform="translate(92,13)"/>
<path d="M0 0 C3.63 0 7.26 0 11 0 C8 3 8 3 4.3125 3.1875 C2.6728125 3.0946875 2.6728125 3.0946875 1 3 C0.67 2.01 0.34 1.02 0 0 Z " fill="#5EA2C2" transform="translate(68,108)"/>
<path d="M0 0 C0.66 0.33 1.32 0.66 2 1 C1.34 2.65 0.68 4.3 0 6 C-2.64 6.33 -5.28 6.66 -8 7 C-4.25 4 -4.25 4 -2 4 C-1.34 2.68 -0.68 1.36 0 0 Z " fill="#9AB3C2" transform="translate(91,85)"/>
<path d="M0 0 C2 3 2 3 2 6 C1.01 6.495 1.01 6.495 0 7 C-0.33 7.66 -0.66 8.32 -1 9 C-3 6 -3 6 -2.625 3.8125 C-2.41875 3.214375 -2.2125 2.61625 -2 2 C-1.34 2 -0.68 2 0 2 C0 1.34 0 0.68 0 0 Z " fill="#2D91C1" transform="translate(24,64)"/>
<path d="M0 0 C0.99 0 1.98 0 3 0 C3 3.63 3 7.26 3 11 C2.67 11 2.34 11 2 11 C1.67 9.35 1.34 7.7 1 6 C0.34 6 -0.32 6 -1 6 C-0.67 4.02 -0.34 2.04 0 0 Z " fill="#C2C6C5" transform="translate(95,58)"/>
<path d="M0 0 C3.50270401 3.50270401 3.05580639 7.58011525 3.0625 12.3125 C3.04653226 13.8750573 3.02730408 15.43759968 3 17 C2.67 17 2.34 17 2 17 C1.66291092 14.91727106 1.33046884 12.83378963 1 10.75 C0.814375 9.58984375 0.62875 8.4296875 0.4375 7.234375 C0 4 0 4 0 0 Z " fill="#4AC6BC" transform="translate(116,31)"/>
<path d="M0 0 C0.33 0.66 0.66 1.32 1 2 C1.99 2 2.98 2 4 2 C4.33 4.31 4.66 6.62 5 9 C4.01 9 3.02 9 2 9 C0.50178941 5.62902617 0 3.79557881 0 0 Z " fill="#9FA2A3" transform="translate(58,55)"/>
<path d="M0 0 C1.98 0.66 3.96 1.32 6 2 C5.34 3.65 4.68 5.3 4 7 C3.67 6.34 3.34 5.68 3 5 C2.34 5 1.68 5 1 5 C0.67 3.35 0.34 1.7 0 0 Z " fill="#B1B4B3" transform="translate(61,38)"/>
<path d="M0 0 C0 3.60573896 -0.81707462 4.41336566 -3 7.1875 C-3.556875 7.90292969 -4.11375 8.61835937 -4.6875 9.35546875 C-5.120625 9.89816406 -5.55375 10.44085938 -6 11 C-6.66 10.67 -7.32 10.34 -8 10 C-7.04367001 8.70684939 -6.08486149 7.41553147 -5.125 6.125 C-4.59132813 5.40570313 -4.05765625 4.68640625 -3.5078125 3.9453125 C-2 2 -2 2 0 0 Z " fill="#A2D0D6" transform="translate(105,82)"/>
<path d="M0 0 C0.66 0.33 1.32 0.66 2 1 C0.63016497 4.16115776 0.0109362 4.9927092 -3 7 C-3.99 6.34 -4.98 5.68 -6 5 C-4.02 3.35 -2.04 1.7 0 0 Z " fill="#1EAAC0" transform="translate(95,88)"/>
<path d="M0 0 C0.66 0 1.32 0 2 0 C2.33 1.32 2.66 2.64 3 4 C0 6 0 6 -4 6 C-3.67 5.01 -3.34 4.02 -3 3 C-2.01 3 -1.02 3 0 3 C0 2.01 0 1.02 0 0 Z " fill="#15A9C3" transform="translate(22,21)"/>
<path d="M0 0 C0.33 0 0.66 0 1 0 C1.17835515 4.54805635 0.99785435 7.8794254 -1 12 C-1.33 12 -1.66 12 -2 12 C-2.17835515 7.45194365 -1.99785435 4.1205746 0 0 Z " fill="#8F9090" transform="translate(47,41)"/>
<path d="M0 0 C0.66 0.33 1.32 0.66 2 1 C1.625 2.9375 1.625 2.9375 1 5 C0.01 5.495 0.01 5.495 -1 6 C-1 5.34 -1 4.68 -1 4 C-2.65 4.66 -4.3 5.32 -6 6 C-4 4 -2 2 0 0 Z " fill="#ABADAD" transform="translate(81,42)"/>
<path d="M0 0 C2.0625 1.75 2.0625 1.75 4 4 C3.75 6.25 3.75 6.25 3 8 C1.02 8 -0.96 8 -3 8 C-1.68 7.67 -0.36 7.34 1 7 C0.649375 6.401875 0.29875 5.80375 -0.0625 5.1875 C-1 3 -1 3 0 0 Z " fill="#B3B4B5" transform="translate(81,24)"/>
<path d="M0 0 C1.32 0.33 2.64 0.66 4 1 C3.67 2.32 3.34 3.64 3 5 C3.66 5.33 4.32 5.66 5 6 C3.35 6 1.7 6 0 6 C0 4.02 0 2.04 0 0 Z " fill="#48B4BA" transform="translate(55,10)"/>
<path d="M0 0 C1.32 0.33 2.64 0.66 4 1 C4 1.66 4 2.32 4 3 C4.99 3.33 5.98 3.66 7 4 C7.33 4.99 7.66 5.98 8 7 C4.59679258 5.98823563 3.24274669 5.35156418 1.1875 2.375 C0.795625 1.59125 0.40375 0.8075 0 0 Z " fill="#7AA3BE" transform="translate(45,100)"/>
<path d="M0 0 C0.66 0.33 1.32 0.66 2 1 C0.52307692 5.67692308 0.52307692 5.67692308 -2.125 7.3125 C-3.053125 7.6528125 -3.053125 7.6528125 -4 8 C-1.125 1.125 -1.125 1.125 0 0 Z " fill="#3592A9" transform="translate(94,84)"/>
<path d="M0 0 C3 2 3 2 3.6875 5.125 C3.790625 6.07375 3.89375 7.0225 4 8 C2.0625 7.1875 2.0625 7.1875 0 6 C-1 3 -1 3 0 0 Z " fill="#388DBE" transform="translate(30,78)"/>
<path d="M0 0 C1.9375 0.8125 1.9375 0.8125 4 2 C4.33 2.99 4.66 3.98 5 5 C4.34 5.66 3.68 6.32 3 7 C2.01 6.01 1.02 5.02 0 4 C0.33 3.67 0.66 3.34 1 3 C0.34 2.34 -0.32 1.68 -1 1 C-0.67 0.67 -0.34 0.34 0 0 Z " fill="#348B93" transform="translate(112,32)"/>
<path d="M0 0 C0.99 0.66 1.98 1.32 3 2 C2.67 3.32 2.34 4.64 2 6 C-0.475 5.01 -0.475 5.01 -3 4 C-2.67 3.01 -2.34 2.02 -2 1 C-1.34 0.67 -0.68 0.34 0 0 Z " fill="#3B8B95" transform="translate(93,16)"/>
<path d="M0 0 C0.66 0 1.32 0 2 0 C2 0.99 2 1.98 2 3 C3.32 2.67 4.64 2.34 6 2 C5.67 2.99 5.34 3.98 5 5 C3.02 5 1.04 5 -1 5 C-0.67 3.35 -0.34 1.7 0 0 Z " fill="#368F98" transform="translate(79,12)"/>
<path d="M0 0 C1.27875 0.103125 2.5575 0.20625 3.875 0.3125 C4.95394531 0.39951172 4.95394531 0.39951172 6.0546875 0.48828125 C8 1 8 1 10 4 C6.7 3.34 3.4 2.68 0 2 C0 1.34 0 0.68 0 0 Z " fill="#3DCABE" transform="translate(82,12)"/>
<path d="M0 0 C0.66 0.33 1.32 0.66 2 1 C2 3.64 2 6.28 2 9 C1.34 9 0.68 9 0 9 C-0.87890625 2.84765625 -0.87890625 2.84765625 -1 1 C-0.67 0.67 -0.34 0.34 0 0 Z " fill="#777979" transform="translate(95,63)"/>
<path d="M0 0 C0.99 0.99 1.98 1.98 3 3 C2.34 3.66 1.68 4.32 1 5 C-1.125 4.625 -1.125 4.625 -3 4 C-3 3.34 -3 2.68 -3 2 C-2.01 1.34 -1.02 0.68 0 0 Z M-5 4 C-4.01 4.495 -4.01 4.495 -3 5 C-3.99 5.495 -3.99 5.495 -5 6 C-5 5.34 -5 4.68 -5 4 Z " fill="#1AC1C1" transform="translate(110,62)"/>
<path d="M0 0 C0.66 0.33 1.32 0.66 2 1 C2.125 6.75 2.125 6.75 1 9 C0.01 8.67 -0.98 8.34 -2 8 C-1.34 5.36 -0.68 2.72 0 0 Z " fill="#1299C5" transform="translate(21,46)"/>
<path d="M0 0 C0.66 0.33 1.32 0.66 2 1 C1.67 1.66 1.34 2.32 1 3 C3.475 3.99 3.475 3.99 6 5 C5.67 5.66 5.34 6.32 5 7 C4.01 7 3.02 7 2 7 C2 6.34 2 5.68 2 5 C1.01 4.67 0.02 4.34 -1 4 C-0.67 2.68 -0.34 1.36 0 0 Z " fill="#338C94" transform="translate(106,25)"/>
<path d="M0 0 C1.98 0 3.96 0 6 0 C5.67 1.32 5.34 2.64 5 4 C3.35 3.67 1.7 3.34 0 3 C0 2.01 0 1.02 0 0 Z " fill="#3D8D98" transform="translate(70,12)"/>
<path d="M0 0 C1.65 1.65 3.3 3.3 5 5 C4.01 5.495 4.01 5.495 3 6 C3.33 6.66 3.66 7.32 4 8 C3.01 7.67 2.02 7.34 1 7 C0.67 4.69 0.34 2.38 0 0 Z " fill="#2686BE" transform="translate(33,81)"/>
<path d="M0 0 C0.99 0.99 1.98 1.98 3 3 C0 5 0 5 -3 5 C-3 4.01 -3 3.02 -3 2 C-2.01 1.34 -1.02 0.68 0 0 Z " fill="#398298" transform="translate(38,17)"/>
</svg>
